<?xml version="1.0" encoding="utf-8"?>
<!-- Generator: Adobe Illustrator 27.6.1, SVG Export Plug-In . SVG Version: 6.00 Build 0)  -->
<svg version="1.1" id="Layer_1" xmlns="http://www.w3.org/2000/svg" xmlns:xlink="http://www.w3.org/1999/xlink" x="0px" y="0px"
	 viewBox="0 0 604.9 142" style="enable-background:new 0 0 604.9 142;" xml:space="preserve">
<style type="text/css">
	.st0{fill:#262262;}
	.st1{fill:#F7941D;}
</style>
<path class="st0" d="M16.3,105.8c0-3.9,0.6-7.7,1.9-11.2c1.3-3.5,3.1-6.5,5.5-9.1c2.4-2.6,5.4-4.6,8.8-6.2c3.5-1.5,7.4-2.3,11.8-2.3
	c2.9,0,5.6,0.3,8,0.8c2.4,0.5,4.8,1.3,7.1,2.2l-3.2,12.3c-1.5-0.6-3-1-4.8-1.5c-1.7-0.4-3.7-0.6-5.8-0.6c-4.6,0-8,1.4-10.2,4.3
	c-2.2,2.8-3.4,6.6-3.4,11.2c0,4.9,1.1,8.7,3.2,11.4c2.1,2.7,5.8,4,11,4c1.9,0,3.9-0.2,6-0.5c2.1-0.3,4.1-0.9,5.9-1.7l2.2,12.7
	c-1.8,0.8-4,1.4-6.7,2c-2.7,0.6-5.7,0.8-8.9,0.8c-5,0-9.3-0.7-12.9-2.2c-3.6-1.5-6.6-3.5-8.9-6.1c-2.3-2.6-4-5.6-5.1-9.1
	C16.9,113.7,16.3,109.9,16.3,105.8z"/>
<path class="st0" d="M85.2,77.1c4.6,0,8.4,0.5,11.4,1.6c3,1,5.5,2.5,7.3,4.5c1.8,1.9,3.1,4.3,3.9,7.1c0.8,2.8,1.1,5.8,1.1,9.2v32.2
	c-2.2,0.5-5.3,1.1-9.2,1.7c-3.9,0.7-8.7,1-14.3,1c-3.5,0-6.7-0.3-9.6-0.9c-2.9-0.6-5.3-1.6-7.4-3.1c-2.1-1.4-3.7-3.3-4.8-5.5
	c-1.1-2.3-1.7-5.1-1.7-8.4c0-3.2,0.6-5.9,1.9-8.1c1.3-2.2,3-4,5.1-5.3c2.1-1.3,4.6-2.3,7.4-2.9c2.8-0.6,5.6-0.9,8.6-0.9
	c2,0,3.8,0.1,5.3,0.3c1.6,0.2,2.8,0.4,3.8,0.7v-1.5c0-2.6-0.8-4.7-2.4-6.3c-1.6-1.6-4.4-2.4-8.3-2.4c-2.6,0-5.2,0.2-7.8,0.6
	c-2.6,0.4-4.8,0.9-6.6,1.6l-2-12.4c0.9-0.3,2-0.6,3.4-0.9c1.3-0.3,2.8-0.6,4.4-0.8c1.6-0.2,3.3-0.4,5-0.6
	C81.6,77.1,83.4,77.1,85.2,77.1z M86.5,122.3c1.5,0,3,0,4.4-0.1c1.4-0.1,2.5-0.2,3.3-0.3v-11.7c-0.6-0.1-1.6-0.3-2.8-0.4
	c-1.2-0.1-2.4-0.2-3.4-0.2c-1.5,0-2.8,0.1-4.1,0.3c-1.3,0.2-2.4,0.5-3.4,1c-1,0.5-1.7,1.1-2.3,2c-0.6,0.8-0.8,1.9-0.8,3.1
	c0,2.4,0.8,4.1,2.4,5C81.4,121.8,83.6,122.3,86.5,122.3z"/>
<path class="st0" d="M153.3,92.2c-1.4-0.3-3-0.7-4.9-1.1c-1.9-0.4-3.9-0.6-6-0.6c-1,0-2.1,0.1-3.5,0.3c-1.3,0.2-2.4,0.4-3.1,0.6
	v41.7h-15.5V81.4c2.8-1,6-1.9,9.8-2.7c3.8-0.9,8-1.3,12.6-1.3c0.8,0,1.8,0.1,3,0.2c1.2,0.1,2.4,0.2,3.5,0.4c1.2,0.2,2.4,0.4,3.5,0.6
	c1.2,0.2,2.2,0.5,3,0.9L153.3,92.2z"/>
<path class="st0" d="M191.5,104.1c0-5-0.6-8.5-1.9-10.6c-1.3-2.1-3.5-3.1-6.6-3.1c-1,0-2,0.1-3,0.2c-1,0.1-2,0.2-3,0.4v42.1h-15.5
	V80.4c1.3-0.3,2.9-0.7,4.6-1.1c1.8-0.4,3.6-0.7,5.6-1c2-0.3,4-0.6,6.1-0.7c2.1-0.2,4.1-0.3,6.1-0.3c3.9,0,7.1,0.5,9.6,1.5
	c2.5,1,4.5,2.2,6.1,3.6c2.2-1.6,4.8-2.8,7.6-3.7c2.9-0.9,5.5-1.3,7.9-1.3c4.4,0,7.9,0.6,10.7,1.8c2.8,1.2,5,2.9,6.7,5.1
	c1.7,2.2,2.8,4.8,3.4,7.9c0.6,3,0.9,6.4,0.9,10.2v30.8h-15.5v-28.9c0-5-0.6-8.5-1.9-10.6c-1.3-2.1-3.5-3.1-6.6-3.1
	c-0.8,0-2,0.2-3.5,0.6c-1.5,0.4-2.7,0.9-3.7,1.6c0.5,1.6,0.8,3.3,0.9,5c0.1,1.8,0.2,3.6,0.2,5.7v29.8h-15.5V104.1z"/>
<path class="st1" d="M355.4,119.2v13.9h-48V61.2h16.2v58H355.4z"/>
<path class="st1" d="M428.5,73.6c-7.5,0-13,2.1-16.3,6.3c-3.4,4.2-5,9.9-5,17.2c0,3.5,0.4,6.7,1.2,9.6c0.8,2.9,2.1,5.3,3.7,7.4
	c1.7,2.1,3.7,3.7,6.2,4.8s5.4,1.7,8.7,1.7c1.8,0,3.3,0,4.6-0.1c1.3-0.1,2.4-0.2,3.4-0.4v-25h16.2v35.6c-1.9,0.8-5,1.6-9.3,2.4
	c-4.3,0.9-9.6,1.3-15.9,1.3c-5.4,0-10.3-0.8-14.7-2.5c-4.4-1.7-8.1-4.1-11.3-7.3c-3.1-3.2-5.5-7.1-7.2-11.7
	c-1.7-4.6-2.5-9.9-2.5-15.9c0-6,0.9-11.3,2.8-16c1.9-4.6,4.4-8.6,7.7-11.8c3.2-3.2,7.1-5.7,11.5-7.3c4.4-1.7,9.1-2.5,14.1-2.5
	c3.4,0,6.4,0.2,9.2,0.7c2.7,0.5,5.1,1,7.1,1.6c2,0.6,3.6,1.2,4.9,1.8c1.3,0.6,2.2,1.1,2.7,1.5l-4.7,13c-2.2-1.2-4.8-2.2-7.6-3.1
	C435,74.1,431.9,73.6,428.5,73.6z"/>
<path class="st1" d="M507,61.2h16.2v71.9H507v-30.5h-27.2v30.5h-16.2V61.2h16.2v27.5H507V61.2z"/>
<path class="st1" d="M590.5,61.2V75h-21.7v58.1h-16.2V75H531V61.2H590.5z"/>
<path class="st0" d="M246,105.6c0.1-41.2,54.9-36.6,50.7-1.5l-32.3,12.4c6.5,7.5,18.2,5.1,27.6,1.4l2.1,12.6
	C273.2,139.2,244.8,132.4,246,105.6z M282.3,99.7c0-14-25.8-14.3-21.2,7.5L282.3,99.7z"/>
<path class="st1" d="M363.2,97.1c0-10.1,0-20.1,0-30.2c0-0.6,0-1.2,0.1-1.8c0.2-2.6,1.3-4,3.1-4.1c2,0,3.9,0.6,5.8,1.3
	c1.3,0.5,2.6,0.9,3.9,1.4c0.5,0.2,1,0.5,1.5,0.9c1.1,0.9,1.7,2.3,1.7,4.3c0,6.5,0,13,0,19.5c0,13,0,26.1,0,39.1
	c0,3.5-1.3,5.5-3.7,5.5c-3,0-5.9,0-8.9,0c-2.1,0-3.5-2.1-3.5-5.2C363.2,117.6,363.2,107.3,363.2,97.1z"/>
<path class="st1" d="M375.8,4.6c-1.4,6.5,0.1,12.3,2.7,18c1.5,3.4,3.2,6.8,4.6,10.3c3.3,8,1.7,15.2-3.7,21.6
	c-0.1,0.1-0.2,0.1-0.3,0.3c-4.1-2.9-7.6-6.4-9.2-11.5c-1.6-5.1-0.6-10.1,1.2-15.2c-4.2,5.2-8.8,15.3-2.7,27.8
	c-0.6-0.6-1.3-1.1-1.9-1.8c-3.9-4.2-5.6-9.4-5.8-15.2C360.2,26.3,365,15.9,373.3,7C374.1,6.2,375,5.4,375.8,4.6z"/>
</svg>
