<svg width="24" height="25" viewBox="0 0 24 25" fill="none" xmlns="http://www.w3.org/2000/svg">
<mask id="mask0_898_16833" style="mask-type:alpha" maskUnits="userSpaceOnUse" x="0" y="0" width="24" height="25">
<rect y="0.5" width="24" height="24" fill="#D9D9D9"/>
</mask>
<g mask="url(#mask0_898_16833)">
<path d="M12 20.5C11.45 20.5 10.9793 20.3043 10.588 19.913C10.196 19.521 10 19.05 10 18.5C10 17.95 10.196 17.479 10.588 17.087C10.9793 16.6957 11.45 16.5 12 16.5C12.55 16.5 13.021 16.6957 13.413 17.087C13.8043 17.479 14 17.95 14 18.5C14 19.05 13.8043 19.521 13.413 19.913C13.021 20.3043 12.55 20.5 12 20.5ZM12 14.5C11.45 14.5 10.9793 14.304 10.588 13.912C10.196 13.5207 10 13.05 10 12.5C10 11.95 10.196 11.479 10.588 11.087C10.9793 10.6957 11.45 10.5 12 10.5C12.55 10.5 13.021 10.6957 13.413 11.087C13.8043 11.479 14 11.95 14 12.5C14 13.05 13.8043 13.5207 13.413 13.912C13.021 14.304 12.55 14.5 12 14.5ZM12 8.5C11.45 8.5 10.9793 8.304 10.588 7.912C10.196 7.52067 10 7.05 10 6.5C10 5.95 10.196 5.47933 10.588 5.088C10.9793 4.696 11.45 4.5 12 4.5C12.55 4.5 13.021 4.696 13.413 5.088C13.8043 5.47933 14 5.95 14 6.5C14 7.05 13.8043 7.52067 13.413 7.912C13.021 8.304 12.55 8.5 12 8.5Z" fill="#091541"/>
</g>
</svg>
