<svg width="24" height="24" viewBox="0 0 24 24" fill="none" xmlns="http://www.w3.org/2000/svg">
<mask id="mask0_555_6268" style="mask-type:alpha" maskUnits="userSpaceOnUse" x="0" y="0" width="24" height="24">
<rect width="24" height="24" fill="#D9D9D9"/>
</mask>
<g mask="url(#mask0_555_6268)">
<path d="M13 11.6L15.5 14.1C15.6833 14.2833 15.775 14.5167 15.775 14.8C15.775 15.0833 15.6833 15.3167 15.5 15.5C15.3167 15.6833 15.0833 15.775 14.8 15.775C14.5167 15.775 14.2833 15.6833 14.1 15.5L11.3 12.7C11.2 12.6 11.125 12.4873 11.075 12.362C11.025 12.2373 11 12.1083 11 11.975V8C11 7.71667 11.096 7.479 11.288 7.287C11.4793 7.09567 11.7167 7 12 7C12.2833 7 12.521 7.09567 12.713 7.287C12.9043 7.479 13 7.71667 13 8V11.6ZM12 21C10.75 21 9.57933 20.7627 8.488 20.288C7.396 19.8127 6.446 19.1707 5.638 18.362C4.82933 17.554 4.18733 16.604 3.712 15.512C3.23733 14.4207 3 13.25 3 12C3 10.75 3.23733 9.579 3.712 8.487C4.18733 7.39567 4.82933 6.44567 5.638 5.637C6.446 4.829 7.396 4.18733 8.488 3.712C9.57933 3.23733 10.75 3 12 3C13.3667 3 14.6627 3.29167 15.888 3.875C17.1127 4.45833 18.15 5.28333 19 6.35V5C19 4.71667 19.096 4.479 19.288 4.287C19.4793 4.09567 19.7167 4 20 4C20.2833 4 20.5207 4.09567 20.712 4.287C20.904 4.479 21 4.71667 21 5V9C21 9.28333 20.904 9.52067 20.712 9.712C20.5207 9.904 20.2833 10 20 10H16C15.7167 10 15.4793 9.904 15.288 9.712C15.096 9.52067 15 9.28333 15 9C15 8.71667 15.096 8.479 15.288 8.287C15.4793 8.09567 15.7167 8 16 8H17.75C17.0667 7.06667 16.225 6.33333 15.225 5.8C14.225 5.26667 13.15 5 12 5C10.05 5 8.396 5.679 7.038 7.037C5.67933 8.39567 5 10.05 5 12C5 13.95 5.67933 15.604 7.038 16.962C8.396 18.3207 10.05 19 12 19C13.5333 19 14.921 18.55 16.163 17.65C17.4043 16.75 18.2417 15.5667 18.675 14.1C18.7583 13.8167 18.9127 13.579 19.138 13.387C19.3627 13.1957 19.6167 13.1333 19.9 13.2C20.2 13.2667 20.4207 13.4333 20.562 13.7C20.704 13.9667 20.7333 14.25 20.65 14.55C20.1 16.4667 19.025 18.0207 17.425 19.212C15.825 20.404 14.0167 21 12 21Z" fill="#62A1EC"/>
</g>
</svg>
