<svg width="12" height="12" viewBox="0 0 12 12" fill="none" xmlns="http://www.w3.org/2000/svg">
<mask id="mask0_1651_32884" style="mask-type:alpha" maskUnits="userSpaceOnUse" x="0" y="0" width="12" height="12">
<rect width="12" height="12" fill="#D9D9D9"/>
</mask>
<g mask="url(#mask0_1651_32884)">
<path d="M6.00005 10.9998C5.37505 10.9998 4.78972 10.8811 4.24405 10.6438C3.69805 10.4061 3.22305 10.0851 2.81905 9.6808C2.41472 9.2768 2.09372 8.8018 1.85605 8.2558C1.61872 7.71014 1.50005 7.1248 1.50005 6.4998C1.50005 5.8748 1.61872 5.2893 1.85605 4.7433C2.09372 4.19764 2.41472 3.72264 2.81905 3.3183C3.22305 2.9143 3.69805 2.59364 4.24405 2.3563C4.78972 2.11864 5.37505 1.9998 6.00005 1.9998C6.62505 1.9998 7.21055 2.11864 7.75655 2.3563C8.30222 2.59364 8.77722 2.9143 9.18155 3.3183C9.58555 3.72264 9.90638 4.19764 10.144 4.7433C10.3814 5.2893 10.5 5.8748 10.5 6.4998C10.5 7.1248 10.3814 7.71014 10.144 8.2558C9.90638 8.8018 9.58555 9.2768 9.18155 9.6808C8.77722 10.0851 8.30222 10.4061 7.75655 10.6438C7.21055 10.8811 6.62505 10.9998 6.00005 10.9998ZM7.40005 8.5998L8.10005 7.89981L6.50005 6.2998V3.9998H5.50005V6.6998L7.40005 8.5998ZM2.80005 1.1748L3.50005 1.8748L1.37505 3.9998L0.675049 3.2998L2.80005 1.1748ZM9.20005 1.1748L11.325 3.2998L10.625 3.9998L8.50005 1.8748L9.20005 1.1748ZM6.00005 9.9998C6.97505 9.9998 7.80205 9.66014 8.48105 8.9808C9.16038 8.3018 9.50005 7.4748 9.50005 6.4998C9.50005 5.5248 9.16038 4.69764 8.48105 4.0183C7.80205 3.3393 6.97505 2.9998 6.00005 2.9998C5.02505 2.9998 4.19805 3.3393 3.51905 4.0183C2.83972 4.69764 2.50005 5.5248 2.50005 6.4998C2.50005 7.4748 2.83972 8.3018 3.51905 8.9808C4.19805 9.66014 5.02505 9.9998 6.00005 9.9998Z" fill="#808080"/>
</g>
</svg>
