<svg width="40" height="40" viewBox="0 0 40 40" fill="none" xmlns="http://www.w3.org/2000/svg">
<rect width="40" height="40" rx="6" fill="#F5F5F5"/>
<mask id="mask0_1651_32752" style="mask-type:alpha" maskUnits="userSpaceOnUse" x="8" y="8" width="24" height="24">
<rect x="8" y="8" width="24" height="24" fill="#D9D9D9"/>
</mask>
<g mask="url(#mask0_1651_32752)">
<path d="M13 28.9999C12.45 28.9999 11.979 28.8042 11.587 28.4129C11.1957 28.0209 11 27.5499 11 26.9999V16.9999C11 16.4499 11.1957 15.9789 11.587 15.5869C11.979 15.1956 12.45 14.9999 13 14.9999H17V13.8249C17 13.6916 17.0127 13.5626 17.038 13.4379C17.0627 13.3126 17.1 13.1916 17.15 13.0749C17.2 12.9582 17.2583 12.8456 17.325 12.7369C17.3917 12.6289 17.475 12.5249 17.575 12.4249L19.3 10.6999C19.5 10.4999 19.7333 10.3999 20 10.3999C20.2667 10.3999 20.5 10.4999 20.7 10.6999L22.425 12.4249C22.6083 12.6082 22.75 12.8206 22.85 13.0619C22.95 13.3039 23 13.5582 23 13.8249V18.9999H27C27.55 18.9999 28.021 19.1956 28.413 19.5869C28.8043 19.9789 29 20.4499 29 20.9999V26.9999C29 27.5499 28.8043 28.0209 28.413 28.4129C28.021 28.8042 27.55 28.9999 27 28.9999H13ZM13 26.9999H15V24.9999H13V26.9999ZM13 22.9999H15V20.9999H13V22.9999ZM13 18.9999H15V16.9999H13V18.9999ZM19 26.9999H21V24.9999H19V26.9999ZM19 22.9999H21V20.9999H19V22.9999ZM19 18.9999H21V16.9999H19V18.9999ZM19 14.9999H21V12.9999H19V14.9999ZM25 26.9999H27V24.9999H25V26.9999ZM25 22.9999H27V20.9999H25V22.9999Z" fill="#3C6CC8"/>
</g>
</svg>
